<?xml version="1.0" standalone="no"?>
<!DOCTYPE svg PUBLIC "-//W3C//DTD SVG 20010904//EN"
 "http://www.w3.org/TR/2001/REC-SVG-20010904/DTD/svg10.dtd">
<svg version="1.0" xmlns="http://www.w3.org/2000/svg"
 width="500.000000pt" height="500.000000pt" viewBox="0 0 500.000000 500.000000"
 preserveAspectRatio="xMidYMid meet">

<g transform="translate(0.000000,500.000000) scale(0.100000,-0.100000)"
fill="#fff" stroke="none">
<path d="M2508 3823 c7 -3 16 -2 19 1 4 3 -2 6 -13 5 -11 0 -14 -3 -6 -6z"/>
<path d="M2430 3800 c-8 -5 -10 -10 -5 -10 6 0 17 5 25 10 8 5 11 10 5 10 -5
0 -17 -5 -25 -10z"/>
<path d="M2601 3806 c10 -9 89 -46 89 -41 0 5 -75 45 -86 45 -4 0 -5 -2 -3 -4z"/>
<path d="M2380 3780 c-8 -5 -10 -10 -5 -10 6 0 17 5 25 10 8 5 11 10 5 10 -5
0 -17 -5 -25 -10z"/>
<path d="M2700 3756 c0 -3 14 -12 30 -21 17 -9 30 -13 30 -11 0 3 -13 12 -30
21 -16 9 -30 13 -30 11z"/>
<path d="M2268 3724 c-38 -20 -36 -28 2 -9 17 9 30 18 30 20 0 7 -1 6 -32 -11z"/>
<path d="M2770 3717 c0 -2 46 -36 103 -74 102 -71 140 -105 149 -133 3 -9 7
-10 11 -3 11 18 -29 55 -138 130 -112 78 -125 86 -125 80z"/>
<path d="M2385 3700 c-36 -14 -48 -37 -42 -77 5 -30 2 -40 -18 -59 -45 -41
-22 -84 45 -84 27 0 52 -10 89 -35 56 -39 93 -44 116 -17 52 60 55 62 98 62
50 0 67 13 67 52 0 19 -9 34 -30 50 -18 13 -34 37 -41 60 -14 52 -39 62 -109
44 l-55 -15 62 6 c70 6 93 -4 93 -43 0 -14 14 -36 35 -55 55 -50 43 -89 -27
-89 -32 0 -46 -7 -78 -40 -22 -22 -47 -40 -58 -40 -10 0 -37 14 -60 31 -29 21
-59 33 -94 38 -69 8 -82 30 -44 70 23 24 27 34 21 61 -12 56 48 90 107 59 11
-6 22 -8 25 -5 6 6 -59 37 -74 35 -4 0 -17 -4 -28 -9z"/>
<path d="M2204 3684 c-18 -14 -18 -15 4 -4 12 6 22 13 22 15 0 8 -5 6 -26 -11z"/>
<path d="M2092 3615 c-45 -31 -82 -58 -82 -60 0 -5 145 89 165 106 22 21 -6 5
-83 -46z"/>
<path d="M2080 3553 c0 -11 133 -104 139 -98 2 3 2 6 0 8 -57 43 -139 96 -139
90z"/>
<path d="M2049 3512 c136 -109 379 -257 396 -240 3 3 -28 21 -69 41 -78 37
-193 111 -287 184 -30 23 -59 43 -65 43 -5 0 6 -13 25 -28z"/>
<path d="M2817 3493 c-43 -25 -76 -48 -73 -50 6 -7 156 79 156 89 0 10 9 14
-83 -39z"/>
<path d="M1997 3483 c-7 -46 -18 -254 -12 -233 7 23 26 262 22 267 -3 2 -7
-13 -10 -34z"/>
<path d="M2935 3483 c-16 -9 -113 -53 -215 -98 -184 -81 -264 -121 -225 -111
30 7 468 205 479 216 15 15 -5 11 -39 -7z"/>
<path d="M3061 3444 c0 -11 3 -14 6 -6 3 7 2 16 -1 19 -3 4 -6 -2 -5 -13z"/>
<path d="M2903 3410 c-29 -17 -53 -33 -53 -36 0 -4 103 50 119 63 18 14 -24
-3 -66 -27z"/>
<path d="M3048 3336 c14 -58 28 -103 30 -101 6 6 -39 188 -48 198 -4 5 4 -39
18 -97z"/>
<path d="M3071 3404 c0 -11 3 -14 6 -6 3 7 2 16 -1 19 -3 4 -6 -2 -5 -13z"/>
<path d="M2030 3360 c0 -22 3 -40 8 -40 4 0 7 18 7 40 0 22 -3 40 -7 40 -5 0
-8 -18 -8 -40z"/>
<path d="M2360 3376 c0 -2 7 -7 16 -10 8 -3 12 -2 9 4 -6 10 -25 14 -25 6z"/>
<path d="M3082 3360 c0 -14 2 -19 5 -12 2 6 2 18 0 25 -3 6 -5 1 -5 -13z"/>
<path d="M3092 3305 c0 -16 2 -22 5 -12 2 9 2 23 0 30 -3 6 -5 -1 -5 -18z"/>
<path d="M2787 3279 c-10 -6 -25 -28 -34 -50 -10 -26 -31 -50 -59 -70 -39 -26
-44 -34 -44 -68 0 -27 7 -44 25 -61 21 -20 25 -33 25 -80 0 -96 52 -132 103
-70 22 26 32 30 76 30 38 0 56 5 71 20 21 21 26 65 10 90 -6 10 -8 3 -3 -23 9
-55 -15 -77 -83 -77 -47 0 -55 -3 -74 -30 -42 -59 -90 -24 -90 66 0 41 -5 59
-25 82 -39 46 -33 77 20 114 28 20 49 44 56 65 6 18 20 40 32 48 24 17 20 28
-6 14z"/>
<path d="M2862 3251 c14 -19 40 -40 58 -46 49 -17 57 -35 37 -87 -9 -24 -17
-53 -17 -63 1 -26 39 83 40 111 0 25 -13 37 -58 52 -17 6 -44 24 -58 39 l-27
28 25 -34z"/>
<path d="M3102 3245 c0 -16 2 -22 5 -12 2 9 2 23 0 30 -3 6 -5 -1 -5 -18z"/>
<path d="M2090 3245 c-21 -25 -4 -103 37 -170 68 -112 117 -185 125 -185 4 0
-17 37 -46 83 -101 155 -132 231 -106 262 27 32 76 9 107 -49 10 -17 12 -16
28 18 23 47 60 59 87 26 25 -31 23 -99 -6 -182 -12 -38 -19 -68 -16 -68 4 0
17 29 29 65 35 107 24 199 -25 211 -27 7 -60 -9 -74 -37 -11 -19 -12 -19 -40
11 -31 33 -79 41 -100 15z"/>
<path d="M2805 3250 c-3 -5 -1 -10 4 -10 6 0 11 5 11 10 0 6 -2 10 -4 10 -3 0
-8 -4 -11 -10z"/>
<path d="M3113 3155 c0 -22 2 -30 4 -17 2 12 2 30 0 40 -3 9 -5 -1 -4 -23z"/>
<path d="M2473 3145 c0 -22 2 -30 4 -17 2 12 2 30 0 40 -3 9 -5 -1 -4 -23z"/>
<path d="M1983 3070 c6 -116 11 -124 117 -207 77 -60 81 -72 36 -122 -14 -16
-16 -22 -6 -19 8 2 23 22 34 44 l18 40 54 -26 c29 -14 53 -29 53 -33 1 -7 -38
-27 -218 -108 -35 -16 -62 -32 -59 -35 3 -3 73 27 156 67 l151 71 60 -20 c34
-11 61 -18 61 -14 0 4 -37 20 -83 36 -45 16 -102 39 -127 52 -61 30 -206 138
-219 163 -6 11 -11 63 -11 115 0 66 -4 96 -11 96 -9 0 -10 -28 -6 -100z"/>
<path d="M3091 3124 c0 -11 3 -14 6 -6 3 7 2 16 -1 19 -3 4 -6 -2 -5 -13z"/>
<path d="M2707 3123 c-9 -9 -9 -45 1 -60 4 -6 7 6 7 28 0 21 0 39 -1 39 0 0
-4 -3 -7 -7z"/>
<path d="M1805 3027 c-156 -80 -288 -164 -280 -177 20 -32 277 -183 398 -233
72 -31 36 -8 -85 52 -127 63 -292 168 -291 186 1 18 114 88 268 167 82 43 146
77 140 77 -5 0 -73 -32 -150 -72z"/>
<path d="M2043 3035 c0 -33 2 -45 4 -27 2 18 2 45 0 60 -2 15 -4 0 -4 -33z"/>
<path d="M3119 3020 c-3 -36 -10 -74 -14 -84 -6 -14 -5 -17 3 -12 7 4 12 16
12 27 0 10 2 19 5 19 12 0 251 -155 273 -177 12 -12 22 -18 22 -13 0 12 -61
57 -182 134 l-107 67 -3 52 -3 52 -6 -65z"/>
<path d="M2517 2985 c3 -33 7 -62 9 -64 8 -9 2 85 -6 104 -5 12 -6 -4 -3 -40z"/>
<path d="M1832 2995 c-28 -20 -52 -38 -52 -41 0 -6 2 -5 73 42 28 19 47 34 42
34 -6 0 -34 -16 -63 -35z"/>
<path d="M2477 2865 c2 -82 8 -156 12 -162 7 -14 3 87 -9 222 -7 72 -8 60 -3
-60z"/>
<path d="M1886 2968 c-65 -43 -76 -62 -52 -85 18 -17 18 -17 7 4 -9 18 -7 25
20 48 41 34 87 57 99 50 19 -12 10 -30 -25 -53 -36 -23 -43 -36 -24 -47 13 -8
69 14 69 27 0 5 -10 2 -22 -6 -24 -17 -48 -21 -48 -8 0 4 16 17 36 30 26 17
34 29 32 45 -5 33 -37 31 -92 -5z"/>
<path d="M2740 2942 c0 -17 4 -34 10 -37 6 -4 7 6 3 27 -8 44 -13 48 -13 10z"/>
<path d="M3028 2916 c-74 -42 -88 -56 -23 -23 47 24 96 56 85 56 -3 0 -31 -14
-62 -33z"/>
<path d="M2124 2915 c11 -8 22 -12 25 -9 6 6 -19 24 -34 24 -5 -1 -1 -7 9 -15z"/>
<path d="M3135 2923 c16 -17 177 -114 182 -110 2 2 -36 28 -84 57 -102 61
-112 67 -98 53z"/>
<path d="M1652 2891 c-17 -17 -32 -36 -32 -44 0 -18 32 -47 51 -47 8 1 2 8
-13 16 -37 19 -35 36 7 73 20 17 32 31 28 31 -5 0 -23 -13 -41 -29z"/>
<path d="M2533 2845 c0 -38 2 -53 4 -32 2 20 2 52 0 70 -2 17 -4 1 -4 -38z"/>
<path d="M2955 2846 c-55 -28 -139 -65 -187 -81 -48 -16 -85 -31 -83 -33 2 -2
34 6 71 18 51 17 69 20 72 11 8 -23 64 -82 93 -97 41 -21 115 -18 155 6 37 24
60 76 49 118 -8 32 -53 82 -73 82 -12 0 -12 3 -2 15 16 19 21 21 -95 -39z
m128 -4 c9 -8 22 -32 28 -52 9 -30 8 -43 -5 -68 -25 -49 -57 -65 -120 -60 -61
5 -108 34 -132 81 -15 28 -15 31 1 43 15 11 20 10 35 -9 10 -12 20 -20 22 -17
1 3 10 18 18 35 19 36 87 77 115 69 11 -4 28 -13 38 -22z m-169 -47 c-4 -8
-10 -12 -15 -9 -11 6 -2 24 11 24 5 0 7 -7 4 -15z"/>
<path d="M3048 2779 c10 -14 10 -20 -4 -33 -25 -26 -60 -17 -56 14 2 18 0 22
-9 13 -6 -6 -9 -19 -7 -29 5 -28 59 -31 83 -4 18 20 18 21 0 38 -16 14 -17 14
-7 1z"/>
<path d="M1860 2855 c0 -2 16 -15 36 -29 39 -26 56 -25 94 5 l25 20 -32 -15
c-42 -21 -55 -20 -86 4 -25 20 -37 25 -37 15z"/>
<path d="M2063 2848 c59 -22 39 -94 -25 -85 -15 2 -25 0 -22 -5 3 -4 18 -8 33
-8 29 0 61 27 61 51 0 26 -30 59 -53 58 -19 0 -19 -2 6 -11z"/>
<path d="M3280 2735 c-30 -19 -50 -35 -45 -35 6 0 35 16 65 35 30 19 51 35 45
35 -5 0 -35 -16 -65 -35z"/>
<path d="M1517 2753 c-3 -4 -8 -51 -10 -103 l-6 -95 13 100 c13 98 13 115 3
98z"/>
<path d="M1968 2745 c-11 -12 11 -45 37 -55 14 -5 35 -5 52 1 l28 9 -29 -4
c-41 -6 -74 9 -78 34 -2 12 -6 19 -10 15z"/>
<path d="M3345 2723 c-27 -14 -129 -62 -225 -105 -96 -44 -179 -84 -185 -89
-11 -12 32 6 190 79 207 94 285 132 285 137 0 9 -15 4 -65 -22z"/>
<path d="M3444 2720 c33 -170 39 -230 40 -367 1 -94 4 -145 10 -136 23 41 -22
507 -51 533 -3 3 -3 -11 1 -30z"/>
<path d="M2585 2709 c-41 -13 -48 -17 -24 -14 31 5 49 -2 116 -44 81 -50 203
-115 203 -107 0 2 -34 23 -76 46 -43 23 -102 58 -133 78 l-56 36 30 12 c45 19
8 15 -60 -7z"/>
<path d="M1885 2690 c3 -5 11 -10 16 -10 6 0 7 5 4 10 -3 6 -11 10 -16 10 -6
0 -7 -4 -4 -10z"/>
<path d="M2704 2691 c8 -12 110 -80 133 -87 10 -3 -10 12 -43 34 -34 22 -65
45 -68 51 -4 6 -12 11 -17 11 -6 0 -8 -4 -5 -9z"/>
<path d="M2457 2535 c-4 -98 -3 -183 3 -220 5 -33 10 -63 10 -67 0 -5 5 -8 11
-8 6 0 7 5 2 13 -4 6 -10 109 -13 227 l-5 215 -8 -160z"/>
<path d="M1665 2640 c-4 -7 2 -9 19 -4 20 5 32 -1 57 -25 25 -26 30 -38 27
-66 -2 -18 0 -31 4 -29 4 3 8 21 8 40 0 26 -8 44 -29 65 -30 29 -74 39 -86 19z"/>
<path d="M2409 2603 c-2 -21 -1 -54 2 -73 5 -25 7 -15 8 38 1 77 -5 96 -10 35z"/>
<path d="M1623 2618 c-19 -24 -22 -46 -8 -64 11 -16 17 -16 39 -6 58 26 62 3
11 -58 -48 -57 -44 -66 5 -10 22 25 40 53 40 63 0 23 -28 33 -52 18 -10 -6
-23 -9 -28 -6 -14 8 -12 39 2 53 6 6 9 14 6 17 -3 3 -10 0 -15 -7z"/>
<path d="M2240 2620 c0 -6 4 -10 9 -10 14 0 28 -50 42 -140 6 -45 14 -79 17
-76 6 7 -15 148 -29 193 -9 29 -39 54 -39 33z"/>
<path d="M2497 2613 c-4 -3 -7 -11 -7 -17 0 -6 5 -5 12 2 6 6 9 14 7 17 -3 3
-9 2 -12 -2z"/>
<path d="M2188 2583 c-34 -36 -61 -91 -54 -109 7 -18 40 -18 56 1 20 25 27 18
34 -35 4 -28 11 -60 17 -73 11 -25 5 20 -13 106 l-10 49 -27 -26 c-28 -27 -51
-34 -51 -15 0 16 19 49 52 92 35 44 33 49 -4 10z"/>
<path d="M1541 2584 c0 -11 3 -14 6 -6 3 7 2 16 -1 19 -3 4 -6 -2 -5 -13z"/>
<path d="M3431 2584 c0 -11 3 -14 6 -6 3 7 2 16 -1 19 -3 4 -6 -2 -5 -13z"/>
<path d="M1958 2404 c2 -104 7 -214 12 -244 4 -30 5 46 2 170 -3 124 -8 234
-12 244 -4 11 -5 -66 -2 -170z"/>
<path d="M3050 2544 c-36 -18 -61 -33 -56 -33 16 -2 126 52 126 60 0 5 -1 8
-2 8 -2 -1 -32 -17 -68 -35z"/>
<path d="M2598 2553 c-51 -59 -50 -133 3 -171 16 -11 17 -15 3 -49 -33 -77 17
-163 95 -163 40 0 81 25 81 50 0 5 -12 -2 -26 -17 -21 -21 -32 -24 -61 -20
-44 8 -69 29 -84 74 -9 29 -8 40 10 76 16 31 18 43 8 49 -44 25 -52 37 -52 82
0 36 6 51 29 75 17 17 25 31 19 31 -5 0 -17 -8 -25 -17z"/>
<path d="M3207 2550 c13 -5 29 -24 38 -42 l15 -33 -6 30 c-7 39 -22 55 -48 54
-21 0 -21 0 1 -9z"/>
<path d="M1494 2460 c0 -52 1 -74 3 -47 2 26 2 68 0 95 -2 26 -3 4 -3 -48z"/>
<path d="M2690 2539 c14 -6 37 -22 53 -36 33 -33 38 -92 8 -122 -19 -19 -19
-20 5 -67 13 -26 24 -39 24 -30 0 10 -8 31 -17 47 -13 22 -15 32 -6 37 23 14
34 63 23 98 -13 40 -63 84 -93 83 -21 0 -20 -1 3 -10z"/>
<path d="M3147 2515 c-35 -74 -88 -227 -83 -241 3 -9 19 -14 43 -13 l38 2 -35
6 c-45 8 -44 16 14 162 44 112 55 152 23 84z"/>
<path d="M1531 2452 c-1 -49 4 -83 15 -103 8 -17 18 -28 21 -25 3 3 0 12 -7
21 -7 8 -16 52 -20 98 l-7 82 -2 -73z"/>
<path d="M2011 2494 c0 -11 3 -14 6 -6 3 7 2 16 -1 19 -3 4 -6 -2 -5 -13z"/>
<path d="M2491 2494 c0 -11 3 -14 6 -6 3 7 2 16 -1 19 -3 4 -6 -2 -5 -13z"/>
<path d="M1712 2448 c-24 -27 -42 -57 -40 -66 2 -11 30 -27 78 -43 58 -20 75
-31 75 -45 0 -21 -29 -24 -75 -10 -20 7 -23 6 -13 -4 7 -7 31 -14 55 -14 33
-1 43 3 46 17 6 28 -14 44 -84 67 -75 25 -79 36 -29 91 19 22 35 44 35 49 0
14 0 14 -48 -42z"/>
<path d="M3454 2385 c0 -66 1 -92 3 -57 2 34 2 88 0 120 -2 31 -3 3 -3 -63z"/>
<path d="M2631 2473 c-1 -25 45 -65 68 -61 34 7 19 68 -16 68 -11 0 -8 -6 7
-18 13 -10 20 -24 16 -30 -11 -18 -54 7 -65 37 -9 24 -9 24 -10 4z"/>
<path d="M2922 2232 l-2 -234 -32 6 -33 5 33 -11 c18 -6 35 -9 37 -6 3 3 4
110 2 239 l-2 234 -3 -233z"/>
<path d="M2967 2345 c3 -66 7 -122 9 -124 7 -8 2 155 -6 199 -5 29 -6 2 -3
-75z"/>
<path d="M3162 2388 c-12 -33 -20 -63 -18 -66 5 -4 35 63 37 82 0 6 5 -4 11
-23 7 -26 6 -36 -4 -42 -10 -7 -8 -9 5 -9 17 0 18 6 12 53 -4 28 -10 55 -14
60 -4 4 -17 -21 -29 -55z"/>
<path d="M3266 2370 c3 -36 8 -95 11 -131 5 -62 4 -67 -16 -74 -28 -9 -41 1
-41 33 0 42 -11 72 -26 72 -8 0 -14 -5 -14 -11 0 -5 4 -8 9 -4 6 3 13 -11 16
-32 11 -65 16 -73 38 -73 46 0 50 11 43 111 -4 52 -12 112 -16 134 -8 33 -8
28 -4 -25z"/>
<path d="M1617 2413 c-4 -3 -7 -23 -7 -44 0 -35 4 -41 41 -59 23 -12 43 -19
46 -17 2 3 -13 13 -34 23 -35 18 -38 22 -38 62 0 23 0 42 -1 42 0 0 -4 -3 -7
-7z"/>
<path d="M2502 2352 c-2 -55 9 -88 37 -109 30 -23 36 -13 6 11 -26 21 -31 33
-36 88 l-6 63 -1 -53z"/>
<path d="M2330 2374 c-18 -11 -19 -13 -5 -9 48 16 81 17 93 2 17 -21 -7 -38
-107 -76 -82 -32 -131 -37 -138 -14 -4 11 3 19 42 49 16 12 14 12 -13 -1 -38
-19 -49 -39 -32 -60 18 -22 49 -19 145 16 104 38 135 60 119 86 -14 23 -72 27
-104 7z"/>
<path d="M2022 2285 c0 -38 3 -92 8 -120 l7 -50 0 50 c0 28 -3 82 -7 120 l-7
70 -1 -70z"/>
<path d="M2670 2304 c-12 -31 4 -67 28 -62 20 4 29 45 13 61 -8 8 -10 2 -5
-22 6 -26 4 -33 -7 -29 -9 3 -14 18 -13 42 1 43 -3 45 -16 10z"/>
<path d="M1520 2302 c12 -24 86 -82 104 -82 6 0 -7 12 -29 25 -22 13 -51 37
-63 52 -19 23 -22 24 -12 5z"/>
<path d="M1923 2230 c0 -41 2 -58 4 -37 2 20 2 54 0 75 -2 20 -4 3 -4 -38z"/>
<path d="M2520 2199 c51 -41 190 -133 190 -126 0 2 -26 21 -57 42 -32 21 -77
53 -100 71 -23 19 -45 34 -50 34 -4 0 3 -10 17 -21z"/>
<path d="M2882 2184 c-1 -17 -4 -53 -7 -80 -5 -41 -4 -45 5 -24 6 13 9 49 7
80 -2 30 -4 41 -5 24z"/>
<path d="M3385 2155 c-80 -46 -215 -100 -328 -131 -55 -15 -74 -22 -47 -19 97
12 413 140 435 175 8 13 9 14 -60 -25z"/>
<path d="M1740 2151 c19 -10 46 -21 60 -25 14 -3 1 5 -29 19 -62 29 -83 33
-31 6z"/>
<path d="M2255 2140 c-23 -11 -79 -30 -125 -44 -47 -14 -77 -25 -68 -25 23 -1
196 55 228 74 35 20 13 17 -35 -5z"/>
<path d="M2750 2110 c0 -6 7 -10 15 -10 8 0 15 2 15 4 0 2 -7 6 -15 10 -8 3
-15 1 -15 -4z"/>
<path d="M1865 2099 c6 -9 94 -43 99 -38 2 2 -20 13 -50 25 -29 12 -51 18 -49
13z"/>
<path d="M2981 2074 c0 -11 3 -14 6 -6 3 7 2 16 -1 19 -3 4 -6 -2 -5 -13z"/>
<path d="M2790 2030 c8 -5 20 -10 25 -10 6 0 3 5 -5 10 -8 5 -19 10 -25 10 -5
0 -3 -5 5 -10z"/>
<path d="M1566 1961 c-44 -7 -68 -33 -48 -53 6 -6 31 -14 54 -17 l43 -6 -4
-107 c-4 -128 9 -178 44 -178 48 0 53 43 29 238 l-7 52 56 0 c75 0 107 29 71
64 -12 13 -36 16 -107 15 -51 -1 -110 -5 -131 -8z"/>
<path d="M2436 1928 c-3 -7 -7 -26 -11 -43 -3 -16 -15 -35 -26 -43 -23 -16
-25 -38 -4 -46 9 -3 15 -18 15 -38 0 -52 19 -106 43 -123 27 -19 91 -20 107 0
21 26 8 50 -29 51 -37 1 -51 16 -51 57 0 22 5 27 23 27 65 0 76 59 14 73 -33
8 -37 12 -37 41 0 43 -34 77 -44 44z"/>
<path d="M3153 1924 c-3 -8 -1 -20 5 -26 16 -16 42 -2 42 22 0 24 -38 28 -47
4z"/>
<path d="M3324 1841 c-43 -26 -75 -74 -81 -121 -5 -32 -1 -43 20 -64 30 -30
64 -33 108 -11 28 15 31 14 55 -4 21 -16 30 -18 46 -10 22 12 22 35 -2 147 -9
42 -17 55 -40 67 -39 20 -69 19 -106 -4z m66 -56 c0 -42 -57 -102 -77 -81 -10
9 19 66 41 81 26 19 36 19 36 0z"/>
<path d="M2283 1828 c-11 -13 -33 -44 -48 -70 -15 -27 -30 -48 -34 -48 -4 0
-20 27 -34 61 -48 112 -79 34 -33 -82 31 -76 32 -87 5 -149 -24 -55 -22 -93 4
-98 31 -6 51 22 125 175 83 173 90 194 67 217 -21 21 -28 20 -52 -6z"/>
<path d="M1912 1820 c-73 -45 -95 -142 -41 -183 38 -27 112 -34 144 -13 51 34
79 109 59 161 -8 20 -48 40 -94 49 -26 4 -44 1 -68 -14z m72 -56 c19 -7 21
-45 4 -62 -14 -14 -64 -16 -73 -2 -8 14 23 70 39 70 8 0 21 -3 30 -6z"/>
<path d="M2672 1820 c-74 -45 -95 -142 -39 -184 21 -15 43 -21 84 -21 49 0 58
3 83 32 51 57 52 141 2 166 -51 26 -94 29 -130 7z m72 -56 c19 -7 21 -45 4
-62 -14 -14 -64 -16 -73 -2 -8 14 23 70 39 70 8 0 21 -3 30 -6z"/>
<path d="M2967 1824 c-3 -3 -20 -6 -38 -7 -32 -2 -34 -4 -46 -62 -7 -33 -12
-110 -13 -172 0 -100 2 -113 19 -122 32 -18 52 8 58 77 l6 62 36 0 c46 0 99
32 107 65 4 15 4 46 1 71 -6 60 -38 94 -87 94 -20 0 -39 -3 -43 -6z m68 -74
c15 -46 -20 -78 -71 -66 -29 8 -30 25 -3 60 25 32 65 35 74 6z"/>
<path d="M3167 1823 c-10 -16 -30 -171 -24 -187 9 -22 44 -20 57 4 6 11 10 57
8 102 -2 68 -6 83 -20 86 -9 2 -18 -1 -21 -5z"/>
</g>
</svg>
